<?xml version="1.0" encoding="UTF-8" standalone="no"?>
<!DOCTYPE svg PUBLIC "-//W3C//DTD SVG 1.1//EN"
 "http://www.w3.org/Graphics/SVG/1.1/DTD/svg11.dtd">
<!-- Generated by graphviz version 2.43.0 (0)
 -->
<!-- Title: %3 Pages: 1 -->
<svg width="884pt" height="441pt"
 viewBox="0.00 0.00 883.76 440.91" xmlns="http://www.w3.org/2000/svg" xmlns:xlink="http://www.w3.org/1999/xlink">
<g id="graph0" class="graph" transform="scale(1 1) rotate(0) translate(4 436.91)">
<title>%3</title>
<polygon fill="white" stroke="transparent" points="-4,4 -4,-436.91 879.76,-436.91 879.76,4 -4,4"/>
<g id="clust1" class="cluster">
<title>clustershot (500) x basis (12)</title>
<path fill="none" stroke="black" d="M20,-321.93C20,-321.93 172,-321.93 172,-321.93 178,-321.93 184,-327.93 184,-333.93 184,-333.93 184,-401.93 184,-401.93 184,-407.93 178,-413.93 172,-413.93 172,-413.93 20,-413.93 20,-413.93 14,-413.93 8,-407.93 8,-401.93 8,-401.93 8,-333.93 8,-333.93 8,-327.93 14,-321.93 20,-321.93"/>
<text text-anchor="middle" x="96" y="-329.73" font-family="Times,serif" font-size="14.00">shot (500) x basis (12)</text>
</g>
<g id="clust2" class="cluster">
<title>clustershot (500)</title>
<path fill="none" stroke="black" d="M112,-8C112,-8 352,-8 352,-8 358,-8 364,-14 364,-20 364,-20 364,-290.95 364,-290.95 364,-296.95 358,-302.95 352,-302.95 352,-302.95 112,-302.95 112,-302.95 106,-302.95 100,-296.95 100,-290.95 100,-290.95 100,-20 100,-20 100,-14 106,-8 112,-8"/>
<text text-anchor="middle" x="319.5" y="-15.8" font-family="Times,serif" font-size="14.00">shot (500)</text>
</g>
<g id="clust3" class="cluster">
<title>clusterbasis (12)</title>
<path fill="none" stroke="black" d="M204,-310.95C204,-310.95 356,-310.95 356,-310.95 362,-310.95 368,-316.95 368,-322.95 368,-322.95 368,-412.91 368,-412.91 368,-418.91 362,-424.91 356,-424.91 356,-424.91 204,-424.91 204,-424.91 198,-424.91 192,-418.91 192,-412.91 192,-412.91 192,-322.95 192,-322.95 192,-316.95 198,-310.95 204,-310.95"/>
<text text-anchor="middle" x="325" y="-318.75" font-family="Times,serif" font-size="14.00">basis (12)</text>
</g>
<g id="clust4" class="cluster">
<title>clustergoalie (79)</title>
<path fill="none" stroke="black" d="M388,-210.95C388,-210.95 550,-210.95 550,-210.95 556,-210.95 562,-216.95 562,-222.95 562,-222.95 562,-412.91 562,-412.91 562,-418.91 556,-424.91 550,-424.91 550,-424.91 388,-424.91 388,-424.91 382,-424.91 376,-418.91 376,-412.91 376,-412.91 376,-222.95 376,-222.95 376,-216.95 382,-210.95 388,-210.95"/>
<text text-anchor="middle" x="516" y="-218.75" font-family="Times,serif" font-size="14.00">goalie (79)</text>
</g>
<!-- x_basis -->
<g id="node1" class="node">
<title>x_basis</title>
<path fill="lightgrey" stroke="black" d="M164,-405.93C164,-405.93 120,-405.93 120,-405.93 114,-405.93 108,-399.93 108,-393.93 108,-393.93 108,-364.93 108,-364.93 108,-358.93 114,-352.93 120,-352.93 120,-352.93 164,-352.93 164,-352.93 170,-352.93 176,-358.93 176,-364.93 176,-364.93 176,-393.93 176,-393.93 176,-399.93 170,-405.93 164,-405.93"/>
<text text-anchor="middle" x="142" y="-390.73" font-family="Times,serif" font-size="14.00">x_basis</text>
<text text-anchor="middle" x="142" y="-375.73" font-family="Times,serif" font-size="14.00">~</text>
<text text-anchor="middle" x="142" y="-360.73" font-family="Times,serif" font-size="14.00">Data</text>
</g>
<!-- trend_spatial -->
<g id="node2" class="node">
<title>trend_spatial</title>
<polygon fill="none" stroke="black" points="339,-294.95 225,-294.95 225,-241.95 339,-241.95 339,-294.95"/>
<text text-anchor="middle" x="282" y="-279.75" font-family="Times,serif" font-size="14.00">trend_spatial</text>
<text text-anchor="middle" x="282" y="-264.75" font-family="Times,serif" font-size="14.00">~</text>
<text text-anchor="middle" x="282" y="-249.75" font-family="Times,serif" font-size="14.00">Deterministic</text>
</g>
<!-- x_basis&#45;&gt;trend_spatial -->
<g id="edge2" class="edge">
<title>x_basis&#45;&gt;trend_spatial</title>
<path fill="none" stroke="black" d="M153.97,-352.66C161.79,-338.45 173.29,-321.58 188,-310.95 198.49,-303.38 203.95,-307.68 216,-302.95 218.99,-301.78 222.03,-300.52 225.07,-299.19"/>
<polygon fill="black" stroke="black" points="226.52,-302.37 234.19,-295.06 223.63,-296 226.52,-302.37"/>
</g>
<!-- xG -->
<g id="node3" class="node">
<title>xG</title>
<polygon fill="none" stroke="black" points="222,-191.98 108,-191.98 108,-138.98 222,-138.98 222,-191.98"/>
<text text-anchor="middle" x="165" y="-176.78" font-family="Times,serif" font-size="14.00">xG</text>
<text text-anchor="middle" x="165" y="-161.78" font-family="Times,serif" font-size="14.00">~</text>
<text text-anchor="middle" x="165" y="-146.78" font-family="Times,serif" font-size="14.00">Deterministic</text>
</g>
<!-- trend_spatial&#45;&gt;xG -->
<g id="edge7" class="edge">
<title>trend_spatial&#45;&gt;xG</title>
<path fill="none" stroke="black" d="M252.17,-241.71C237.05,-228.66 218.52,-212.67 202.44,-198.79"/>
<polygon fill="black" stroke="black" points="204.63,-196.06 194.77,-192.17 200.06,-201.35 204.63,-196.06"/>
</g>
<!-- obs -->
<g id="node6" class="node">
<title>obs</title>
<ellipse fill="lightgrey" stroke="black" cx="298" cy="-165.48" rx="57.97" ry="37.45"/>
<text text-anchor="middle" x="298" y="-176.78" font-family="Times,serif" font-size="14.00">obs</text>
<text text-anchor="middle" x="298" y="-161.78" font-family="Times,serif" font-size="14.00">~</text>
<text text-anchor="middle" x="298" y="-146.78" font-family="Times,serif" font-size="14.00">Bernoulli</text>
</g>
<!-- trend_spatial&#45;&gt;obs -->
<g id="edge10" class="edge">
<title>trend_spatial&#45;&gt;obs</title>
<path fill="none" stroke="black" d="M286.08,-241.71C287.47,-232.95 289.06,-222.87 290.63,-212.99"/>
<polygon fill="black" stroke="black" points="294.13,-213.26 292.24,-202.84 287.22,-212.17 294.13,-213.26"/>
</g>
<!-- idx_goalie -->
<g id="node4" class="node">
<title>idx_goalie</title>
<path fill="lightgrey" stroke="black" d="M195,-294.95C195,-294.95 131,-294.95 131,-294.95 125,-294.95 119,-288.95 119,-282.95 119,-282.95 119,-253.95 119,-253.95 119,-247.95 125,-241.95 131,-241.95 131,-241.95 195,-241.95 195,-241.95 201,-241.95 207,-247.95 207,-253.95 207,-253.95 207,-282.95 207,-282.95 207,-288.95 201,-294.95 195,-294.95"/>
<text text-anchor="middle" x="163" y="-279.75" font-family="Times,serif" font-size="14.00">idx_goalie</text>
<text text-anchor="middle" x="163" y="-264.75" font-family="Times,serif" font-size="14.00">~</text>
<text text-anchor="middle" x="163" y="-249.75" font-family="Times,serif" font-size="14.00">Data</text>
</g>
<!-- idx_goalie&#45;&gt;xG -->
<g id="edge8" class="edge">
<title>idx_goalie&#45;&gt;xG</title>
<path fill="none" stroke="black" d="M163.51,-241.71C163.75,-229.72 164.03,-215.26 164.29,-202.24"/>
<polygon fill="black" stroke="black" points="167.79,-202.24 164.49,-192.17 160.79,-202.1 167.79,-202.24"/>
</g>
<!-- idx_goalie&#45;&gt;obs -->
<g id="edge11" class="edge">
<title>idx_goalie&#45;&gt;obs</title>
<path fill="none" stroke="black" d="M183.85,-241.78C193.03,-231.43 204.36,-219.87 216,-210.95 222,-206.36 224.35,-206.54 231,-202.95 235.74,-200.4 240.66,-197.74 245.58,-195.07"/>
<polygon fill="black" stroke="black" points="247.3,-198.12 254.42,-190.27 243.96,-191.97 247.3,-198.12"/>
</g>
<!-- obs_shots -->
<g id="node5" class="node">
<title>obs_shots</title>
<path fill="lightgrey" stroke="black" d="M329,-92C329,-92 267,-92 267,-92 261,-92 255,-86 255,-80 255,-80 255,-51 255,-51 255,-45 261,-39 267,-39 267,-39 329,-39 329,-39 335,-39 341,-45 341,-51 341,-51 341,-80 341,-80 341,-86 335,-92 329,-92"/>
<text text-anchor="middle" x="298" y="-76.8" font-family="Times,serif" font-size="14.00">obs_shots</text>
<text text-anchor="middle" x="298" y="-61.8" font-family="Times,serif" font-size="14.00">~</text>
<text text-anchor="middle" x="298" y="-46.8" font-family="Times,serif" font-size="14.00">Data</text>
</g>
<!-- obs&#45;&gt;obs_shots -->
<g id="edge1" class="edge">
<title>obs&#45;&gt;obs_shots</title>
<path fill="none" stroke="black" d="M298,-127.99C298,-119.58 298,-110.63 298,-102.25"/>
<polygon fill="black" stroke="black" points="301.5,-102.01 298,-92.01 294.5,-102.01 301.5,-102.01"/>
</g>
<!-- coeffs_spatial -->
<g id="node7" class="node">
<title>coeffs_spatial</title>
<ellipse fill="none" stroke="black" cx="280" cy="-379.43" rx="79.81" ry="37.45"/>
<text text-anchor="middle" x="280" y="-390.73" font-family="Times,serif" font-size="14.00">coeffs_spatial</text>
<text text-anchor="middle" x="280" y="-375.73" font-family="Times,serif" font-size="14.00">~</text>
<text text-anchor="middle" x="280" y="-360.73" font-family="Times,serif" font-size="14.00">Normal</text>
</g>
<!-- coeffs_spatial&#45;&gt;trend_spatial -->
<g id="edge3" class="edge">
<title>coeffs_spatial&#45;&gt;trend_spatial</title>
<path fill="none" stroke="black" d="M280.67,-341.84C280.89,-330.1 281.13,-317.11 281.34,-305.42"/>
<polygon fill="black" stroke="black" points="284.84,-305.17 281.53,-295.11 277.85,-305.05 284.84,-305.17"/>
</g>
<!-- sigma_goalie -->
<g id="node8" class="node">
<title>sigma_goalie</title>
<ellipse fill="none" stroke="black" cx="649" cy="-379.43" rx="77.15" ry="37.45"/>
<text text-anchor="middle" x="649" y="-390.73" font-family="Times,serif" font-size="14.00">sigma_goalie</text>
<text text-anchor="middle" x="649" y="-375.73" font-family="Times,serif" font-size="14.00">~</text>
<text text-anchor="middle" x="649" y="-360.73" font-family="Times,serif" font-size="14.00">Halfnormal</text>
</g>
<!-- effect_goalie -->
<g id="node11" class="node">
<title>effect_goalie</title>
<polygon fill="none" stroke="black" points="526,-294.95 412,-294.95 412,-241.95 526,-241.95 526,-294.95"/>
<text text-anchor="middle" x="469" y="-279.75" font-family="Times,serif" font-size="14.00">effect_goalie</text>
<text text-anchor="middle" x="469" y="-264.75" font-family="Times,serif" font-size="14.00">~</text>
<text text-anchor="middle" x="469" y="-249.75" font-family="Times,serif" font-size="14.00">Deterministic</text>
</g>
<!-- sigma_goalie&#45;&gt;effect_goalie -->
<g id="edge4" class="edge">
<title>sigma_goalie&#45;&gt;effect_goalie</title>
<path fill="none" stroke="black" d="M613.45,-345.88C599.33,-333.95 582.53,-320.94 566,-310.95 556.42,-305.17 545.89,-299.78 535.4,-294.93"/>
<polygon fill="black" stroke="black" points="536.78,-291.71 526.23,-290.81 533.92,-298.1 536.78,-291.71"/>
</g>
<!-- mu_league -->
<g id="node9" class="node">
<title>mu_league</title>
<ellipse fill="none" stroke="black" cx="810" cy="-379.43" rx="65.52" ry="37.45"/>
<text text-anchor="middle" x="810" y="-390.73" font-family="Times,serif" font-size="14.00">mu_league</text>
<text text-anchor="middle" x="810" y="-375.73" font-family="Times,serif" font-size="14.00">~</text>
<text text-anchor="middle" x="810" y="-360.73" font-family="Times,serif" font-size="14.00">Normal</text>
</g>
<!-- mu_league&#45;&gt;effect_goalie -->
<g id="edge6" class="edge">
<title>mu_league&#45;&gt;effect_goalie</title>
<path fill="none" stroke="black" d="M781.27,-345.34C768.4,-332.6 752.24,-319.15 735,-310.95 672.01,-281.01 592.08,-271.88 536.36,-269.46"/>
<polygon fill="black" stroke="black" points="536.37,-265.96 526.25,-269.09 536.11,-272.96 536.37,-265.96"/>
</g>
<!-- z_goalie_offset -->
<g id="node10" class="node">
<title>z_goalie_offset</title>
<ellipse fill="none" stroke="black" cx="469" cy="-379.43" rx="84.71" ry="37.45"/>
<text text-anchor="middle" x="469" y="-390.73" font-family="Times,serif" font-size="14.00">z_goalie_offset</text>
<text text-anchor="middle" x="469" y="-375.73" font-family="Times,serif" font-size="14.00">~</text>
<text text-anchor="middle" x="469" y="-360.73" font-family="Times,serif" font-size="14.00">Normal</text>
</g>
<!-- z_goalie_offset&#45;&gt;effect_goalie -->
<g id="edge5" class="edge">
<title>z_goalie_offset&#45;&gt;effect_goalie</title>
<path fill="none" stroke="black" d="M469,-341.84C469,-330.1 469,-317.11 469,-305.42"/>
<polygon fill="black" stroke="black" points="472.5,-305.11 469,-295.11 465.5,-305.11 472.5,-305.11"/>
</g>
<!-- effect_goalie&#45;&gt;xG -->
<g id="edge9" class="edge">
<title>effect_goalie&#45;&gt;xG</title>
<path fill="none" stroke="black" d="M432.43,-241.69C413.99,-230.12 390.76,-217.6 368,-210.95 309.45,-193.85 289.59,-219.9 231,-202.95 225.28,-201.3 219.51,-199.08 213.89,-196.55"/>
<polygon fill="black" stroke="black" points="215.12,-193.26 204.6,-192.05 212.07,-199.56 215.12,-193.26"/>
</g>
<!-- effect_goalie&#45;&gt;obs -->
<g id="edge12" class="edge">
<title>effect_goalie&#45;&gt;obs</title>
<path fill="none" stroke="black" d="M425.41,-241.71C402.05,-227.92 373.16,-210.86 348.79,-196.47"/>
<polygon fill="black" stroke="black" points="350.43,-193.37 340.04,-191.3 346.87,-199.4 350.43,-193.37"/>
</g>
</g>
</svg>
