<?xml version="1.0" encoding="UTF-8" standalone="no"?>
<!DOCTYPE svg PUBLIC "-//W3C//DTD SVG 1.1//EN"
 "http://www.w3.org/Graphics/SVG/1.1/DTD/svg11.dtd">
<!-- Generated by graphviz version 2.43.0 (0)
 -->
<!-- Title: %3 Pages: 1 -->
<svg width="494pt" height="260pt"
 viewBox="0.00 0.00 494.00 259.91" xmlns="http://www.w3.org/2000/svg" xmlns:xlink="http://www.w3.org/1999/xlink">
<g id="graph0" class="graph" transform="scale(1 1) rotate(0) translate(4 255.91)">
<title>%3</title>
<polygon fill="white" stroke="transparent" points="-4,4 -4,-255.91 490,-255.91 490,4 -4,4"/>
<g id="clust1" class="cluster">
<title>clustercluster (2)</title>
<path fill="none" stroke="black" d="M20,-129.95C20,-129.95 466,-129.95 466,-129.95 472,-129.95 478,-135.95 478,-141.95 478,-141.95 478,-231.91 478,-231.91 478,-237.91 472,-243.91 466,-243.91 466,-243.91 20,-243.91 20,-243.91 14,-243.91 8,-237.91 8,-231.91 8,-231.91 8,-141.95 8,-141.95 8,-135.95 14,-129.95 20,-129.95"/>
<text text-anchor="middle" x="433" y="-137.75" font-family="Times,serif" font-size="14.00">cluster (2)</text>
</g>
<g id="clust2" class="cluster">
<title>clusterid_obs (40)</title>
<path fill="none" stroke="black" d="M180,-8C180,-8 276,-8 276,-8 282,-8 288,-14 288,-20 288,-20 288,-109.95 288,-109.95 288,-115.95 282,-121.95 276,-121.95 276,-121.95 180,-121.95 180,-121.95 174,-121.95 168,-115.95 168,-109.95 168,-109.95 168,-20 168,-20 168,-14 174,-8 180,-8"/>
<text text-anchor="middle" x="240.5" y="-15.8" font-family="Times,serif" font-size="14.00">id_obs (40)</text>
</g>
<!-- sigma_cluster -->
<g id="node1" class="node">
<title>sigma_cluster</title>
<ellipse fill="none" stroke="black" cx="388" cy="-198.43" rx="82.05" ry="37.45"/>
<text text-anchor="middle" x="388" y="-209.73" font-family="Times,serif" font-size="14.00">sigma_cluster</text>
<text text-anchor="middle" x="388" y="-194.73" font-family="Times,serif" font-size="14.00">~</text>
<text text-anchor="middle" x="388" y="-179.73" font-family="Times,serif" font-size="14.00">Halfnormal</text>
</g>
<!-- obs -->
<g id="node4" class="node">
<title>obs</title>
<ellipse fill="lightgrey" stroke="black" cx="228" cy="-76.48" rx="52.15" ry="37.45"/>
<text text-anchor="middle" x="228" y="-87.78" font-family="Times,serif" font-size="14.00">obs</text>
<text text-anchor="middle" x="228" y="-72.78" font-family="Times,serif" font-size="14.00">~</text>
<text text-anchor="middle" x="228" y="-57.78" font-family="Times,serif" font-size="14.00">Mixture</text>
</g>
<!-- sigma_cluster&#45;&gt;obs -->
<g id="edge1" class="edge">
<title>sigma_cluster&#45;&gt;obs</title>
<path fill="none" stroke="black" d="M345.96,-165.91C323.12,-148.79 294.9,-127.63 271.79,-110.31"/>
<polygon fill="black" stroke="black" points="273.63,-107.31 263.53,-104.11 269.43,-112.91 273.63,-107.31"/>
</g>
<!-- w_cluster -->
<g id="node2" class="node">
<title>w_cluster</title>
<ellipse fill="none" stroke="black" cx="228" cy="-198.43" rx="60.21" ry="37.45"/>
<text text-anchor="middle" x="228" y="-209.73" font-family="Times,serif" font-size="14.00">w_cluster</text>
<text text-anchor="middle" x="228" y="-194.73" font-family="Times,serif" font-size="14.00">~</text>
<text text-anchor="middle" x="228" y="-179.73" font-family="Times,serif" font-size="14.00">Dirichlet</text>
</g>
<!-- w_cluster&#45;&gt;obs -->
<g id="edge2" class="edge">
<title>w_cluster&#45;&gt;obs</title>
<path fill="none" stroke="black" d="M228,-160.79C228,-149.38 228,-136.65 228,-124.63"/>
<polygon fill="black" stroke="black" points="231.5,-124.31 228,-114.31 224.5,-124.31 231.5,-124.31"/>
</g>
<!-- mu_cluster -->
<g id="node3" class="node">
<title>mu_cluster</title>
<ellipse fill="none" stroke="black" cx="83" cy="-198.43" rx="67.35" ry="37.45"/>
<text text-anchor="middle" x="83" y="-209.73" font-family="Times,serif" font-size="14.00">mu_cluster</text>
<text text-anchor="middle" x="83" y="-194.73" font-family="Times,serif" font-size="14.00">~</text>
<text text-anchor="middle" x="83" y="-179.73" font-family="Times,serif" font-size="14.00">Normal</text>
</g>
<!-- mu_cluster&#45;&gt;obs -->
<g id="edge3" class="edge">
<title>mu_cluster&#45;&gt;obs</title>
<path fill="none" stroke="black" d="M117.33,-165.96C130.21,-154.42 145.1,-141.38 159,-129.95 167.02,-123.36 175.72,-116.51 184.16,-110.03"/>
<polygon fill="black" stroke="black" points="186.32,-112.78 192.14,-103.93 182.07,-107.22 186.32,-112.78"/>
</g>
</g>
</svg>
