<?xml version="1.0" encoding="UTF-8" standalone="no"?>
<!DOCTYPE svg PUBLIC "-//W3C//DTD SVG 1.1//EN"
 "http://www.w3.org/Graphics/SVG/1.1/DTD/svg11.dtd">
<!-- Generated by graphviz version 2.43.0 (0)
 -->
<!-- Title: %3 Pages: 1 -->
<svg width="850pt" height="452pt"
 viewBox="0.00 0.00 850.42 451.86" xmlns="http://www.w3.org/2000/svg" xmlns:xlink="http://www.w3.org/1999/xlink">
<g id="graph0" class="graph" transform="scale(1 1) rotate(0) translate(4 447.86)">
<title>%3</title>
<polygon fill="white" stroke="transparent" points="-4,4 -4,-447.86 846.42,-447.86 846.42,4 -4,4"/>
<g id="clust1" class="cluster">
<title>clusterid_obs (160)</title>
<path fill="none" stroke="black" d="M20,-8C20,-8 198,-8 198,-8 204,-8 210,-14 210,-20 210,-20 210,-298.93 210,-298.93 210,-304.93 204,-310.93 198,-310.93 198,-310.93 20,-310.93 20,-310.93 14,-310.93 8,-304.93 8,-298.93 8,-298.93 8,-20 8,-20 8,-14 14,-8 20,-8"/>
<text text-anchor="middle" x="158" y="-15.8" font-family="Times,serif" font-size="14.00">id_obs (160)</text>
</g>
<g id="clust2" class="cluster">
<title>clustergroup (2)</title>
<path fill="none" stroke="black" d="M560,-321.91C560,-321.91 678,-321.91 678,-321.91 684,-321.91 690,-327.91 690,-333.91 690,-333.91 690,-423.86 690,-423.86 690,-429.86 684,-435.86 678,-435.86 678,-435.86 560,-435.86 560,-435.86 554,-435.86 548,-429.86 548,-423.86 548,-423.86 548,-333.91 548,-333.91 548,-327.91 554,-321.91 560,-321.91"/>
<text text-anchor="middle" x="648.5" y="-329.71" font-family="Times,serif" font-size="14.00">group (2)</text>
</g>
<g id="clust3" class="cluster">
<title>clusterpage (4) x group (2)</title>
<path fill="none" stroke="black" d="M378,-218.93C378,-218.93 528,-218.93 528,-218.93 534,-218.93 540,-224.93 540,-230.93 540,-230.93 540,-423.86 540,-423.86 540,-429.86 534,-435.86 528,-435.86 528,-435.86 378,-435.86 378,-435.86 372,-435.86 366,-429.86 366,-423.86 366,-423.86 366,-230.93 366,-230.93 366,-224.93 372,-218.93 378,-218.93"/>
<text text-anchor="middle" x="461" y="-226.73" font-family="Times,serif" font-size="14.00">page (4) x group (2)</text>
</g>
<!-- idx_page -->
<g id="node1" class="node">
<title>idx_page</title>
<path fill="lightgrey" stroke="black" d="M190,-302.93C190,-302.93 134,-302.93 134,-302.93 128,-302.93 122,-296.93 122,-290.93 122,-290.93 122,-261.93 122,-261.93 122,-255.93 128,-249.93 134,-249.93 134,-249.93 190,-249.93 190,-249.93 196,-249.93 202,-255.93 202,-261.93 202,-261.93 202,-290.93 202,-290.93 202,-296.93 196,-302.93 190,-302.93"/>
<text text-anchor="middle" x="162" y="-287.73" font-family="Times,serif" font-size="14.00">idx_page</text>
<text text-anchor="middle" x="162" y="-272.73" font-family="Times,serif" font-size="14.00">~</text>
<text text-anchor="middle" x="162" y="-257.73" font-family="Times,serif" font-size="14.00">Data</text>
</g>
<!-- lcp -->
<g id="node3" class="node">
<title>lcp</title>
<ellipse fill="lightgrey" stroke="black" cx="136" cy="-165.48" rx="65.52" ry="37.45"/>
<text text-anchor="middle" x="136" y="-176.78" font-family="Times,serif" font-size="14.00">lcp</text>
<text text-anchor="middle" x="136" y="-161.78" font-family="Times,serif" font-size="14.00">~</text>
<text text-anchor="middle" x="136" y="-146.78" font-family="Times,serif" font-size="14.00">Lognormal</text>
</g>
<!-- idx_page&#45;&gt;lcp -->
<g id="edge5" class="edge">
<title>idx_page&#45;&gt;lcp</title>
<path fill="none" stroke="black" d="M155.9,-249.89C153.27,-238.87 150.11,-225.63 147.1,-212.97"/>
<polygon fill="black" stroke="black" points="150.44,-211.92 144.72,-203 143.63,-213.54 150.44,-211.92"/>
</g>
<!-- idx_group -->
<g id="node2" class="node">
<title>idx_group</title>
<path fill="lightgrey" stroke="black" d="M91.5,-302.93C91.5,-302.93 28.5,-302.93 28.5,-302.93 22.5,-302.93 16.5,-296.93 16.5,-290.93 16.5,-290.93 16.5,-261.93 16.5,-261.93 16.5,-255.93 22.5,-249.93 28.5,-249.93 28.5,-249.93 91.5,-249.93 91.5,-249.93 97.5,-249.93 103.5,-255.93 103.5,-261.93 103.5,-261.93 103.5,-290.93 103.5,-290.93 103.5,-296.93 97.5,-302.93 91.5,-302.93"/>
<text text-anchor="middle" x="60" y="-287.73" font-family="Times,serif" font-size="14.00">idx_group</text>
<text text-anchor="middle" x="60" y="-272.73" font-family="Times,serif" font-size="14.00">~</text>
<text text-anchor="middle" x="60" y="-257.73" font-family="Times,serif" font-size="14.00">Data</text>
</g>
<!-- idx_group&#45;&gt;lcp -->
<g id="edge6" class="edge">
<title>idx_group&#45;&gt;lcp</title>
<path fill="none" stroke="black" d="M77.82,-249.89C86.32,-237.7 96.72,-222.79 106.37,-208.96"/>
<polygon fill="black" stroke="black" points="109.4,-210.73 112.25,-200.53 103.66,-206.73 109.4,-210.73"/>
</g>
<!-- obs_lcp -->
<g id="node4" class="node">
<title>obs_lcp</title>
<path fill="lightgrey" stroke="black" d="M158.5,-92C158.5,-92 113.5,-92 113.5,-92 107.5,-92 101.5,-86 101.5,-80 101.5,-80 101.5,-51 101.5,-51 101.5,-45 107.5,-39 113.5,-39 113.5,-39 158.5,-39 158.5,-39 164.5,-39 170.5,-45 170.5,-51 170.5,-51 170.5,-80 170.5,-80 170.5,-86 164.5,-92 158.5,-92"/>
<text text-anchor="middle" x="136" y="-76.8" font-family="Times,serif" font-size="14.00">obs_lcp</text>
<text text-anchor="middle" x="136" y="-61.8" font-family="Times,serif" font-size="14.00">~</text>
<text text-anchor="middle" x="136" y="-46.8" font-family="Times,serif" font-size="14.00">Data</text>
</g>
<!-- lcp&#45;&gt;obs_lcp -->
<g id="edge1" class="edge">
<title>lcp&#45;&gt;obs_lcp</title>
<path fill="none" stroke="black" d="M136,-127.99C136,-119.58 136,-110.63 136,-102.25"/>
<polygon fill="black" stroke="black" points="139.5,-102.01 136,-92.01 132.5,-102.01 139.5,-102.01"/>
</g>
<!-- mu_global -->
<g id="node5" class="node">
<title>mu_global</title>
<ellipse fill="none" stroke="black" cx="619" cy="-390.38" rx="62.87" ry="37.45"/>
<text text-anchor="middle" x="619" y="-401.68" font-family="Times,serif" font-size="14.00">mu_global</text>
<text text-anchor="middle" x="619" y="-386.68" font-family="Times,serif" font-size="14.00">~</text>
<text text-anchor="middle" x="619" y="-371.68" font-family="Times,serif" font-size="14.00">Normal</text>
</g>
<!-- mu_page -->
<g id="node9" class="node">
<title>mu_page</title>
<polygon fill="none" stroke="black" points="521,-302.93 407,-302.93 407,-249.93 521,-249.93 521,-302.93"/>
<text text-anchor="middle" x="464" y="-287.73" font-family="Times,serif" font-size="14.00">mu_page</text>
<text text-anchor="middle" x="464" y="-272.73" font-family="Times,serif" font-size="14.00">~</text>
<text text-anchor="middle" x="464" y="-257.73" font-family="Times,serif" font-size="14.00">Deterministic</text>
</g>
<!-- mu_global&#45;&gt;mu_page -->
<g id="edge2" class="edge">
<title>mu_global&#45;&gt;mu_page</title>
<path fill="none" stroke="black" d="M587.12,-357.8C574.27,-345.86 558.97,-332.59 544,-321.91 537.45,-317.23 530.37,-312.67 523.21,-308.35"/>
<polygon fill="black" stroke="black" points="524.54,-305.07 514.14,-303.03 520.99,-311.11 524.54,-305.07"/>
</g>
<!-- sigma_page -->
<g id="node6" class="node">
<title>sigma_page</title>
<ellipse fill="none" stroke="black" cx="771" cy="-390.38" rx="71.34" ry="37.45"/>
<text text-anchor="middle" x="771" y="-401.68" font-family="Times,serif" font-size="14.00">sigma_page</text>
<text text-anchor="middle" x="771" y="-386.68" font-family="Times,serif" font-size="14.00">~</text>
<text text-anchor="middle" x="771" y="-371.68" font-family="Times,serif" font-size="14.00">Halfnormal</text>
</g>
<!-- sigma_page&#45;&gt;mu_page -->
<g id="edge4" class="edge">
<title>sigma_page&#45;&gt;mu_page</title>
<path fill="none" stroke="black" d="M740.84,-356.27C727.64,-343.68 711.24,-330.35 694,-321.91 642.95,-296.91 579.1,-285.95 531.63,-281.15"/>
<polygon fill="black" stroke="black" points="531.75,-277.65 521.46,-280.19 531.09,-284.62 531.75,-277.65"/>
</g>
<!-- sigma_obs -->
<g id="node7" class="node">
<title>sigma_obs</title>
<ellipse fill="none" stroke="black" cx="289" cy="-276.43" rx="68.68" ry="37.45"/>
<text text-anchor="middle" x="289" y="-287.73" font-family="Times,serif" font-size="14.00">sigma_obs</text>
<text text-anchor="middle" x="289" y="-272.73" font-family="Times,serif" font-size="14.00">~</text>
<text text-anchor="middle" x="289" y="-257.73" font-family="Times,serif" font-size="14.00">Halfnormal</text>
</g>
<!-- sigma_obs&#45;&gt;lcp -->
<g id="edge8" class="edge">
<title>sigma_obs&#45;&gt;lcp</title>
<path fill="none" stroke="black" d="M249.98,-245.41C238.48,-236.74 225.82,-227.35 214,-218.93 205.25,-212.7 195.84,-206.2 186.69,-199.99"/>
<polygon fill="black" stroke="black" points="188.63,-197.08 178.38,-194.38 184.71,-202.88 188.63,-197.08"/>
</g>
<!-- offset_page_z -->
<g id="node8" class="node">
<title>offset_page_z</title>
<ellipse fill="none" stroke="black" cx="453" cy="-390.38" rx="79.39" ry="37.45"/>
<text text-anchor="middle" x="453" y="-401.68" font-family="Times,serif" font-size="14.00">offset_page_z</text>
<text text-anchor="middle" x="453" y="-386.68" font-family="Times,serif" font-size="14.00">~</text>
<text text-anchor="middle" x="453" y="-371.68" font-family="Times,serif" font-size="14.00">Normal</text>
</g>
<!-- offset_page_z&#45;&gt;mu_page -->
<g id="edge3" class="edge">
<title>offset_page_z&#45;&gt;mu_page</title>
<path fill="none" stroke="black" d="M456.6,-352.73C457.85,-340.07 459.24,-325.92 460.47,-313.32"/>
<polygon fill="black" stroke="black" points="463.98,-313.47 461.47,-303.18 457.01,-312.79 463.98,-313.47"/>
</g>
<!-- mu_page&#45;&gt;lcp -->
<g id="edge7" class="edge">
<title>mu_page&#45;&gt;lcp</title>
<path fill="none" stroke="black" d="M426.19,-249.79C408.79,-238.96 387.49,-227 367,-218.93 316.2,-198.91 255.97,-185.55 209.75,-177.33"/>
<polygon fill="black" stroke="black" points="210.26,-173.86 199.81,-175.6 209.06,-180.76 210.26,-173.86"/>
</g>
</g>
</svg>
