<?xml version="1.0" encoding="UTF-8" standalone="no"?>
<!DOCTYPE svg PUBLIC "-//W3C//DTD SVG 1.1//EN"
 "http://www.w3.org/Graphics/SVG/1.1/DTD/svg11.dtd">
<!-- Generated by graphviz version 2.43.0 (0)
 -->
<!-- Title: %3 Pages: 1 -->
<svg width="1072pt" height="452pt"
 viewBox="0.00 0.00 1072.00 451.86" xmlns="http://www.w3.org/2000/svg" xmlns:xlink="http://www.w3.org/1999/xlink">
<g id="graph0" class="graph" transform="scale(1 1) rotate(0) translate(4 447.86)">
<title>%3</title>
<polygon fill="white" stroke="transparent" points="-4,4 -4,-447.86 1068,-447.86 1068,4 -4,4"/>
<g id="clust1" class="cluster">
<title>clusterid_obs (12)</title>
<path fill="none" stroke="black" d="M20,-8C20,-8 348,-8 348,-8 354,-8 360,-14 360,-20 360,-20 360,-301.93 360,-301.93 360,-307.93 354,-313.93 348,-313.93 348,-313.93 20,-313.93 20,-313.93 14,-313.93 8,-307.93 8,-301.93 8,-301.93 8,-20 8,-20 8,-14 14,-8 20,-8"/>
<text text-anchor="middle" x="312.5" y="-15.8" font-family="Times,serif" font-size="14.00">id_obs (12)</text>
</g>
<g id="clust2" class="cluster">
<title>clusterlocation (4)</title>
<path fill="none" stroke="black" d="M528,-221.93C528,-221.93 688,-221.93 688,-221.93 694,-221.93 700,-227.93 700,-233.93 700,-233.93 700,-423.86 700,-423.86 700,-429.86 694,-435.86 688,-435.86 688,-435.86 528,-435.86 528,-435.86 522,-435.86 516,-429.86 516,-423.86 516,-423.86 516,-233.93 516,-233.93 516,-227.93 522,-221.93 528,-221.93"/>
<text text-anchor="middle" x="651.5" y="-229.73" font-family="Times,serif" font-size="14.00">location (4)</text>
</g>
<g id="clust3" class="cluster">
<title>clusterweather (3)</title>
<path fill="none" stroke="black" d="M720,-210.95C720,-210.95 872,-210.95 872,-210.95 878,-210.95 884,-216.95 884,-222.95 884,-222.95 884,-312.91 884,-312.91 884,-318.91 878,-324.91 872,-324.91 872,-324.91 720,-324.91 720,-324.91 714,-324.91 708,-318.91 708,-312.91 708,-312.91 708,-222.95 708,-222.95 708,-216.95 714,-210.95 720,-210.95"/>
<text text-anchor="middle" x="834.5" y="-218.75" font-family="Times,serif" font-size="14.00">weather (3)</text>
</g>
<g id="clust4" class="cluster">
<title>clusterseason (4)</title>
<path fill="none" stroke="black" d="M904,-210.95C904,-210.95 1044,-210.95 1044,-210.95 1050,-210.95 1056,-216.95 1056,-222.95 1056,-222.95 1056,-312.91 1056,-312.91 1056,-318.91 1050,-324.91 1044,-324.91 1044,-324.91 904,-324.91 904,-324.91 898,-324.91 892,-318.91 892,-312.91 892,-312.91 892,-222.95 892,-222.95 892,-216.95 898,-210.95 904,-210.95"/>
<text text-anchor="middle" x="1011.5" y="-218.75" font-family="Times,serif" font-size="14.00">season (4)</text>
</g>
<!-- y_obs -->
<g id="node1" class="node">
<title>y_obs</title>
<path fill="lightgrey" stroke="black" d="M302,-92C302,-92 270,-92 270,-92 264,-92 258,-86 258,-80 258,-80 258,-51 258,-51 258,-45 264,-39 270,-39 270,-39 302,-39 302,-39 308,-39 314,-45 314,-51 314,-51 314,-80 314,-80 314,-86 308,-92 302,-92"/>
<text text-anchor="middle" x="286" y="-76.8" font-family="Times,serif" font-size="14.00">y_obs</text>
<text text-anchor="middle" x="286" y="-61.8" font-family="Times,serif" font-size="14.00">~</text>
<text text-anchor="middle" x="286" y="-46.8" font-family="Times,serif" font-size="14.00">Data</text>
</g>
<!-- sales -->
<g id="node2" class="node">
<title>sales</title>
<ellipse fill="lightgrey" stroke="black" cx="286" cy="-165.48" rx="65.52" ry="37.45"/>
<text text-anchor="middle" x="286" y="-176.78" font-family="Times,serif" font-size="14.00">sales</text>
<text text-anchor="middle" x="286" y="-161.78" font-family="Times,serif" font-size="14.00">~</text>
<text text-anchor="middle" x="286" y="-146.78" font-family="Times,serif" font-size="14.00">Lognormal</text>
</g>
<!-- sales&#45;&gt;y_obs -->
<g id="edge1" class="edge">
<title>sales&#45;&gt;y_obs</title>
<path fill="none" stroke="black" d="M286,-127.99C286,-119.58 286,-110.63 286,-102.25"/>
<polygon fill="black" stroke="black" points="289.5,-102.01 286,-92.01 282.5,-102.01 289.5,-102.01"/>
</g>
<!-- idx_weather -->
<g id="node3" class="node">
<title>idx_weather</title>
<path fill="lightgrey" stroke="black" d="M340,-305.93C340,-305.93 260,-305.93 260,-305.93 254,-305.93 248,-299.93 248,-293.93 248,-293.93 248,-264.93 248,-264.93 248,-258.93 254,-252.93 260,-252.93 260,-252.93 340,-252.93 340,-252.93 346,-252.93 352,-258.93 352,-264.93 352,-264.93 352,-293.93 352,-293.93 352,-299.93 346,-305.93 340,-305.93"/>
<text text-anchor="middle" x="300" y="-290.73" font-family="Times,serif" font-size="14.00">idx_weather</text>
<text text-anchor="middle" x="300" y="-275.73" font-family="Times,serif" font-size="14.00">~</text>
<text text-anchor="middle" x="300" y="-260.73" font-family="Times,serif" font-size="14.00">Data</text>
</g>
<!-- idx_weather&#45;&gt;sales -->
<g id="edge7" class="edge">
<title>idx_weather&#45;&gt;sales</title>
<path fill="none" stroke="black" d="M296.79,-252.75C295.32,-241.02 293.54,-226.75 291.85,-213.22"/>
<polygon fill="black" stroke="black" points="295.29,-212.56 290.58,-203.07 288.34,-213.43 295.29,-212.56"/>
</g>
<!-- idx_location -->
<g id="node4" class="node">
<title>idx_location</title>
<path fill="lightgrey" stroke="black" d="M217.5,-305.93C217.5,-305.93 140.5,-305.93 140.5,-305.93 134.5,-305.93 128.5,-299.93 128.5,-293.93 128.5,-293.93 128.5,-264.93 128.5,-264.93 128.5,-258.93 134.5,-252.93 140.5,-252.93 140.5,-252.93 217.5,-252.93 217.5,-252.93 223.5,-252.93 229.5,-258.93 229.5,-264.93 229.5,-264.93 229.5,-293.93 229.5,-293.93 229.5,-299.93 223.5,-305.93 217.5,-305.93"/>
<text text-anchor="middle" x="179" y="-290.73" font-family="Times,serif" font-size="14.00">idx_location</text>
<text text-anchor="middle" x="179" y="-275.73" font-family="Times,serif" font-size="14.00">~</text>
<text text-anchor="middle" x="179" y="-260.73" font-family="Times,serif" font-size="14.00">Data</text>
</g>
<!-- idx_location&#45;&gt;sales -->
<g id="edge8" class="edge">
<title>idx_location&#45;&gt;sales</title>
<path fill="none" stroke="black" d="M201,-252.65C212.14,-239.87 226.02,-224.35 239,-210.95 240.98,-208.91 243.03,-206.84 245.11,-204.76"/>
<polygon fill="black" stroke="black" points="247.6,-207.22 252.28,-197.72 242.69,-202.23 247.6,-207.22"/>
</g>
<!-- idx_season -->
<g id="node5" class="node">
<title>idx_season</title>
<path fill="lightgrey" stroke="black" d="M98,-305.93C98,-305.93 28,-305.93 28,-305.93 22,-305.93 16,-299.93 16,-293.93 16,-293.93 16,-264.93 16,-264.93 16,-258.93 22,-252.93 28,-252.93 28,-252.93 98,-252.93 98,-252.93 104,-252.93 110,-258.93 110,-264.93 110,-264.93 110,-293.93 110,-293.93 110,-299.93 104,-305.93 98,-305.93"/>
<text text-anchor="middle" x="63" y="-290.73" font-family="Times,serif" font-size="14.00">idx_season</text>
<text text-anchor="middle" x="63" y="-275.73" font-family="Times,serif" font-size="14.00">~</text>
<text text-anchor="middle" x="63" y="-260.73" font-family="Times,serif" font-size="14.00">Data</text>
</g>
<!-- idx_season&#45;&gt;sales -->
<g id="edge9" class="edge">
<title>idx_season&#45;&gt;sales</title>
<path fill="none" stroke="black" d="M78.46,-252.9C88.37,-238.59 102.46,-221.54 119,-210.95 146.7,-193.23 181.3,-182.53 211.8,-176.09"/>
<polygon fill="black" stroke="black" points="212.85,-179.45 221.98,-174.06 211.49,-172.58 212.85,-179.45"/>
</g>
<!-- mu_global -->
<g id="node6" class="node">
<title>mu_global</title>
<ellipse fill="none" stroke="black" cx="773" cy="-390.38" rx="62.87" ry="37.45"/>
<text text-anchor="middle" x="773" y="-401.68" font-family="Times,serif" font-size="14.00">mu_global</text>
<text text-anchor="middle" x="773" y="-386.68" font-family="Times,serif" font-size="14.00">~</text>
<text text-anchor="middle" x="773" y="-371.68" font-family="Times,serif" font-size="14.00">Normal</text>
</g>
<!-- alpha -->
<g id="node10" class="node">
<title>alpha</title>
<polygon fill="none" stroke="black" points="678,-305.93 564,-305.93 564,-252.93 678,-252.93 678,-305.93"/>
<text text-anchor="middle" x="621" y="-290.73" font-family="Times,serif" font-size="14.00">alpha</text>
<text text-anchor="middle" x="621" y="-275.73" font-family="Times,serif" font-size="14.00">~</text>
<text text-anchor="middle" x="621" y="-260.73" font-family="Times,serif" font-size="14.00">Deterministic</text>
</g>
<!-- mu_global&#45;&gt;alpha -->
<g id="edge3" class="edge">
<title>mu_global&#45;&gt;alpha</title>
<path fill="none" stroke="black" d="M733.46,-361.04C712.49,-346.01 686.68,-327.51 665.07,-312.02"/>
<polygon fill="black" stroke="black" points="666.87,-309 656.7,-306.02 662.79,-314.69 666.87,-309"/>
</g>
<!-- sigma_global -->
<g id="node7" class="node">
<title>sigma_global</title>
<ellipse fill="none" stroke="black" cx="932" cy="-390.38" rx="77.56" ry="37.45"/>
<text text-anchor="middle" x="932" y="-401.68" font-family="Times,serif" font-size="14.00">sigma_global</text>
<text text-anchor="middle" x="932" y="-386.68" font-family="Times,serif" font-size="14.00">~</text>
<text text-anchor="middle" x="932" y="-371.68" font-family="Times,serif" font-size="14.00">Halfnormal</text>
</g>
<!-- sigma_global&#45;&gt;alpha -->
<g id="edge4" class="edge">
<title>sigma_global&#45;&gt;alpha</title>
<path fill="none" stroke="black" d="M876.45,-364.15C866.13,-360.02 855.34,-356.07 845,-352.91 783.9,-334.24 764.15,-346.45 704,-324.91 693.29,-321.07 682.26,-316.03 671.89,-310.73"/>
<polygon fill="black" stroke="black" points="673.44,-307.59 662.97,-306.02 670.18,-313.78 673.44,-307.59"/>
</g>
<!-- sigma -->
<g id="node8" class="node">
<title>sigma</title>
<ellipse fill="none" stroke="black" cx="439" cy="-279.43" rx="68.68" ry="37.45"/>
<text text-anchor="middle" x="439" y="-290.73" font-family="Times,serif" font-size="14.00">sigma</text>
<text text-anchor="middle" x="439" y="-275.73" font-family="Times,serif" font-size="14.00">~</text>
<text text-anchor="middle" x="439" y="-260.73" font-family="Times,serif" font-size="14.00">Halfnormal</text>
</g>
<!-- sigma&#45;&gt;sales -->
<g id="edge11" class="edge">
<title>sigma&#45;&gt;sales</title>
<path fill="none" stroke="black" d="M406.33,-246.25C393.62,-234.5 378.63,-221.52 364,-210.95 357.19,-206.03 349.79,-201.21 342.34,-196.67"/>
<polygon fill="black" stroke="black" points="344.01,-193.59 333.62,-191.47 340.42,-199.6 344.01,-193.59"/>
</g>
<!-- offset_location -->
<g id="node9" class="node">
<title>offset_location</title>
<ellipse fill="none" stroke="black" cx="608" cy="-390.38" rx="84.29" ry="37.45"/>
<text text-anchor="middle" x="608" y="-401.68" font-family="Times,serif" font-size="14.00">offset_location</text>
<text text-anchor="middle" x="608" y="-386.68" font-family="Times,serif" font-size="14.00">~</text>
<text text-anchor="middle" x="608" y="-371.68" font-family="Times,serif" font-size="14.00">Normal</text>
</g>
<!-- offset_location&#45;&gt;alpha -->
<g id="edge2" class="edge">
<title>offset_location&#45;&gt;alpha</title>
<path fill="none" stroke="black" d="M612.36,-352.8C613.78,-340.94 615.35,-327.81 616.75,-316.03"/>
<polygon fill="black" stroke="black" points="620.23,-316.43 617.94,-306.08 613.28,-315.6 620.23,-316.43"/>
</g>
<!-- alpha&#45;&gt;sales -->
<g id="edge10" class="edge">
<title>alpha&#45;&gt;sales</title>
<path fill="none" stroke="black" d="M588.62,-252.75C568.96,-238.38 542.75,-221.33 517,-210.95 466.97,-190.8 407.09,-179.61 360.83,-173.49"/>
<polygon fill="black" stroke="black" points="361.24,-170.01 350.87,-172.22 360.35,-176.96 361.24,-170.01"/>
</g>
<!-- beta_weather -->
<g id="node11" class="node">
<title>beta_weather</title>
<ellipse fill="none" stroke="black" cx="796" cy="-279.43" rx="79.81" ry="37.45"/>
<text text-anchor="middle" x="796" y="-290.73" font-family="Times,serif" font-size="14.00">beta_weather</text>
<text text-anchor="middle" x="796" y="-275.73" font-family="Times,serif" font-size="14.00">~</text>
<text text-anchor="middle" x="796" y="-260.73" font-family="Times,serif" font-size="14.00">Normal</text>
</g>
<!-- beta_weather&#45;&gt;sales -->
<g id="edge5" class="edge">
<title>beta_weather&#45;&gt;sales</title>
<path fill="none" stroke="black" d="M760.62,-245.65C744.52,-232.63 724.5,-218.89 704,-210.95 643.41,-187.49 464.86,-175.15 361.78,-169.81"/>
<polygon fill="black" stroke="black" points="361.9,-166.31 351.74,-169.3 361.55,-173.3 361.9,-166.31"/>
</g>
<!-- beta_season -->
<g id="node12" class="node">
<title>beta_season</title>
<ellipse fill="none" stroke="black" cx="974" cy="-279.43" rx="73.58" ry="37.45"/>
<text text-anchor="middle" x="974" y="-290.73" font-family="Times,serif" font-size="14.00">beta_season</text>
<text text-anchor="middle" x="974" y="-275.73" font-family="Times,serif" font-size="14.00">~</text>
<text text-anchor="middle" x="974" y="-260.73" font-family="Times,serif" font-size="14.00">Normal</text>
</g>
<!-- beta_season&#45;&gt;sales -->
<g id="edge6" class="edge">
<title>beta_season&#45;&gt;sales</title>
<path fill="none" stroke="black" d="M941.79,-245.69C926.76,-232.5 907.82,-218.63 888,-210.95 794.09,-174.58 501.89,-167.75 362.06,-166.61"/>
<polygon fill="black" stroke="black" points="361.88,-163.11 351.85,-166.53 361.82,-170.11 361.88,-163.11"/>
</g>
</g>
</svg>
